<?xml version="1.0" encoding="utf-8"?>
<!-- Generator: Adobe Illustrator 23.1.1, SVG Export Plug-In . SVG Version: 6.00 Build 0)  -->
<svg version="1.1" id="Layer_1" xmlns="http://www.w3.org/2000/svg" xmlns:xlink="http://www.w3.org/1999/xlink" x="0px" y="0px"
	 viewBox="0 0 50 50" style="enable-background:new 0 0 50 50;" xml:space="preserve">
<style type="text/css">
	.st0{fill:#898989;}
	.st1{fill:#7A7A7A;}
	.st2{fill:#ADADAD;}
	.st3{fill:#696969;}
</style>
<path class="st0" d="M8.3,38.5L24.2,8.8c0.3-0.6,1.2-0.6,1.6,0l5.5,11L8.3,38.5z"/>
<path class="st1" d="M8.3,38.5l5.8-35.6C14.3,2,15.5,1.8,16,2.6l11.1,21.3L8.3,38.5z"/>
<path class="st2" d="M8.3,38.5l0.2-0.2l18.3-14.9l-5.1-9.9L8.3,38.5z"/>
<path class="st3" d="M8.3,38.5l27.8-26.8c0.6-0.6,1.6-0.2,1.7,0.6l3.9,26.2L26,47.6c-0.6,0.4-1.4,0.4-2,0L8.3,38.5z"/>
</svg>
